<svg width="162" height="72" viewBox="0 0 162 72" fill="none" xmlns="http://www.w3.org/2000/svg">
<path d="M38 4.5C32.5 10 27 15.5 20.3602 22.6468C19.5 23.4476 24.364 21.6677 26.3756 21.2206C30.0432 20.4056 35.1142 18.6658 38.7903 20.1236C42.4234 21.5643 41.2728 26.6317 40.1067 29.3935C38.3035 33.6644 34.3493 37.7237 30.398 40.0713C27.7217 41.6613 22.5114 42.8952 22.5726 38.0966C22.6648 30.8542 29.8656 24.1728 34.969 19.9956C40.3581 15.5846 46.0941 12.9442 52.7043 11" stroke="black" stroke-opacity="0.87" stroke-width="2" stroke-linecap="round" stroke-linejoin="round"/>
<path d="M53.0334 11.3291C49.8044 19.0119 48.4435 27.1582 47.2923 35.3906C45.9352 45.0955 44.7993 54.8669 44.1475 64.6447" stroke="black" stroke-opacity="0.87" stroke-width="2" stroke-linecap="round" stroke-linejoin="round"/>
<path d="M52.5 29C56.4738 28.6475 62.6752 25.0232 63.7477 20.5441C64.2693 18.3658 62.8161 17.0655 60.8588 18.3866C57.0462 20.9602 53.5569 27.5505 54.3132 32.1726C54.9232 35.9002 59.2912 35.6801 62.0107 34.6409C64.6948 33.6153 66.6021 31.7942 68.5015 29.7592" stroke="black" stroke-opacity="0.87" stroke-width="2" stroke-linecap="round" stroke-linejoin="round"/>
<path d="M71.1343 22.5188C71.2277 22.3412 72.2805 19.773 72.853 19.8494C73.3953 19.9217 72.9569 22.763 72.9262 23.0307C72.6081 25.8024 72.1158 28.5197 71.6097 31.2584C71.5608 31.5232 71.2104 34.5313 71.7011 33.3611C73.3798 29.3582 75.1297 25.3738 77.2228 21.568C77.444 21.166 80.6236 14.5802 81.5195 16.0463C82.7872 18.1206 81.5784 22.4672 81.7024 24.8225C81.8094 26.8552 81.8603 30.3998 83.8964 31.5876C85.8758 32.7422 86.758 30.0787 87.2607 28.7718" stroke="black" stroke-opacity="0.87" stroke-width="2" stroke-linecap="round" stroke-linejoin="round"/>
<path d="M97.6092 12.5C95.7188 14.8824 91.2312 21.0051 89.6009 23.5793C89.3065 24.0441 91.7739 22.1549 92.2338 21.8606C93.8089 20.8525 96.4747 19.3419 98.3771 20.3796C100.587 21.5849 100.523 25.0876 100.023 27.1446C99.5873 28.9346 98.8324 31.3099 97.3898 32.5749C96.5982 33.269 94.4218 33.8929 93.9159 32.5017C92.9935 29.9653 96.2129 26.2339 97.6092 24.4934C99.7544 21.8195 102.359 19.693 105.032 17.5822" stroke="black" stroke-opacity="0.87" stroke-width="2" stroke-linecap="round" stroke-linejoin="round"/>
<path d="M108.324 24.4934C110.421 22.3413 114.669 19.2695 113.407 15.6624C112.486 13.031 109 20.7984 108.854 21.2206C108.048 23.5492 105.823 30.6663 108.616 32.5017C111.704 34.531 116.226 28.7379 117.868 26.7972" stroke="black" stroke-opacity="0.87" stroke-width="2" stroke-linecap="round" stroke-linejoin="round"/>
<path d="M123.011 18.3346C122.39 21.2391 121.466 24.1998 121.073 27.1474C121.041 27.3932 120.804 29.0129 121.402 28.6284C122.745 27.7653 123.725 25.6662 124.511 24.3683C125.999 21.9104 127.453 19.3965 129.228 17.1279C129.899 16.2709 130.979 15.1805 131.166 16.945C131.478 19.8917 131.048 22.8803 131.385 25.831C131.622 27.8981 132.171 30.9227 134.896 30.5482C138.483 30.0554 140.558 27.0877 142.758 24.5877" stroke="black" stroke-opacity="0.87" stroke-width="2" stroke-linecap="round" stroke-linejoin="round"/>
<circle cx="54" cy="5" r="2" fill="black" fill-opacity="0.87"/>
</svg>
